<?xml version="1.0" encoding="utf-8"?>
<!-- Generator: Adobe Illustrator 26.3.1, SVG Export Plug-In . SVG Version: 6.00 Build 0)  -->
<!DOCTYPE svg PUBLIC "-//W3C//DTD SVG 1.1//EN" "http://www.w3.org/Graphics/SVG/1.1/DTD/svg11.dtd" [
	<!ENTITY ns_extend "http://ns.adobe.com/Extensibility/1.0/">
	<!ENTITY ns_ai "http://ns.adobe.com/AdobeIllustrator/10.0/">
	<!ENTITY ns_graphs "http://ns.adobe.com/Graphs/1.0/">
	<!ENTITY ns_vars "http://ns.adobe.com/Variables/1.0/">
	<!ENTITY ns_imrep "http://ns.adobe.com/ImageReplacement/1.0/">
	<!ENTITY ns_sfw "http://ns.adobe.com/SaveForWeb/1.0/">
	<!ENTITY ns_custom "http://ns.adobe.com/GenericCustomNamespace/1.0/">
	<!ENTITY ns_adobe_xpath "http://ns.adobe.com/XPath/1.0/">
]>
<svg version="1.1" id="Layer_1" xmlns:x="&ns_extend;" xmlns:i="&ns_ai;" xmlns:graph="&ns_graphs;"
	 xmlns="http://www.w3.org/2000/svg" xmlns:xlink="http://www.w3.org/1999/xlink" x="0px" y="0px" viewBox="0 0 144.4 62.3"
	 style="enable-background:new 0 0 144.4 62.3;" xml:space="preserve" role="presentation">
<style type="text/css">
	.st0{fill:#A7A8AB;}
	.st1{fill:#231F20;}
	.st2{fill:#D0AF21;}
	.st3{fill:#9C182F;}
	.st4{fill:#FFFFFF;}
</style>
<metadata>
	<sfw  xmlns="&ns_sfw;">
		<slices></slices>
		<sliceSourceBounds  bottomLeftOrigin="true" height="58.3" width="136.8" x="4.1" y="1.7"></sliceSourceBounds>
	</sfw>
</metadata>
<g>
	<g>
		<path class="st0" d="M124.4,39.8c-0.7-0.4-1.4-0.8-2-1.1c-0.2-0.1-0.5-0.3-0.7-0.4c0.4,0.3,0.8,0.6,1.3,0.8c0.7,0.4,1.4,0.7,2,1.1
			c0.2,0.1,0.3,0.2,0.5,0.3c-0.1-0.1-0.1-0.1-0.2-0.2C125.1,40.2,124.8,40,124.4,39.8"/>
		<path class="st1" d="M26.3,41.5c0,0.5,0,0.7,0,1.2c0,0.6-0.1,1.2-0.3,1.8c-0.2,0.6-0.5,1.1-0.9,1.6c-0.4,0.5-0.9,0.9-1.4,1.2
			c-0.5,0.3-1.1,0.5-1.8,0.6c-0.5,0.1-1.1,0.1-1.7,0c-0.6-0.1-1.1-0.2-1.6-0.5c-0.5-0.3-0.9-0.7-1.2-1.2c-0.4-0.6-0.5-1.5-0.5-2.1
			c-0.2-3.6-0.3-7.2-0.5-10.8c0-0.6,0.1-1.3,0.3-1.8c0.2-0.6,0.5-1.1,0.9-1.6c0.4-0.5,0.9-0.9,1.5-1.2c0.6-0.3,1.2-0.5,1.9-0.6
			c1.2-0.2,2.5,0,3.4,0.8c0.4,0.4,0.8,0.8,1.1,1.4c0.3,0.5,0.4,1.2,0.4,1.8c0,0.4,0,0.7,0,1.1c-1,0.1-1.9,0.3-2.9,0.4
			c0-0.4,0-0.6,0-0.9c0-0.6-0.2-1-0.5-1.4c-0.3-0.4-0.8-0.5-1.3-0.4c-0.7,0.1-1.2,0.4-1.4,0.9c-0.2,0.5-0.3,1-0.3,1.7
			c0.1,3.3,0.3,6.7,0.4,10c0,0.6,0.2,1,0.4,1.4c0.3,0.3,0.7,0.5,1.4,0.4c0.2,0,0.4-0.1,0.6-0.2c0.2-0.1,0.4-0.2,0.6-0.4
			c0.2-0.2,0.3-0.4,0.4-0.7c0.1-0.3,0.1-0.6,0.1-1c0-0.4,0-0.6,0-1C24.3,41.8,25.3,41.6,26.3,41.5"/>
		<path class="st1" d="M32,45.7c-0.2-5.6-0.4-11.2-0.6-16.7c1.3-0.2,2.7-0.3,4-0.4c3-0.3,4.6,1.7,4.6,4.5c0,0.9-0.1,1.7-0.4,2.6
			c-0.3,0.8-0.9,1.4-1.6,1.8c1,2.5,1.9,4.9,2.9,7.4c-0.9,0.1-1.7,0.2-2.6,0.2c-0.8-2.3-1.7-4.6-2.5-6.9c-0.6,0.1-0.9,0.1-1.5,0.2
			c0.1,2.4,0.2,4.8,0.2,7.2C33.6,45.5,32.8,45.6,32,45.7 M34,31c0.1,1.7,0.1,3.5,0.2,5.2c0.6-0.1,0.8-0.1,1.4-0.2
			c0.4,0,0.8-0.1,1-0.3c0.3-0.1,0.5-0.3,0.6-0.6c0.1-0.2,0.2-0.5,0.2-0.8c0-0.3,0.1-0.7,0-1.1c0-0.4,0-0.8-0.1-1.1
			c-0.1-0.3-0.2-0.6-0.3-0.8c-0.3-0.4-0.9-0.6-1.8-0.5C34.8,30.9,34.5,30.9,34,31"/>
		<path class="st1" d="M45.2,44.5c-0.1-5.6-0.3-11.2-0.4-16.8c2.5-0.2,5-0.4,7.5-0.5c0,0.8,0,1.5,0,2.3c-1.7,0.1-3.3,0.2-5,0.3
			c0,1.6,0.1,3.3,0.1,4.9c1.4-0.1,2.9-0.2,4.3-0.3c0,0.8,0,1.5,0,2.3c-1.4,0.1-2.9,0.2-4.3,0.3c0,1.6,0.1,3.3,0.1,4.9
			c1.6-0.1,3.3-0.2,4.9-0.3c0,0.8,0,1.6,0,2.4C50.2,44.1,47.7,44.3,45.2,44.5"/>
		<path class="st1" d="M65.1,31.5c-0.8,0-1.7,0-2.5,0.1c0-0.2,0-0.3,0-0.5c0-0.5-0.1-1-0.4-1.4c-0.3-0.4-0.7-0.6-1.4-0.6
			c-0.3,0-0.6,0.1-0.8,0.2c-0.2,0.1-0.4,0.3-0.5,0.5c-0.1,0.2-0.2,0.4-0.3,0.7c0,0.3-0.1,0.5-0.1,0.8c0,0.3,0,0.6,0,0.8
			c0,0.2,0.1,0.4,0.2,0.6c0.1,0.2,0.2,0.3,0.4,0.4c0.2,0.1,0.4,0.2,0.8,0.4c0.8,0.3,1.2,0.4,1.9,0.7c0.6,0.2,1,0.4,1.4,0.7
			c0.3,0.3,0.6,0.6,0.8,0.9c0.2,0.4,0.3,0.8,0.4,1.3c0.1,0.5,0.1,1,0.1,1.6c0,0.7-0.1,1.4-0.2,2c-0.1,0.6-0.4,1.1-0.7,1.6
			c-0.3,0.4-0.8,0.8-1.3,1.1c-0.5,0.3-1.2,0.4-2,0.4c-0.6,0-1.2-0.1-1.7-0.2c-0.5-0.2-1-0.4-1.3-0.8c-0.4-0.3-0.7-0.8-0.9-1.2
			c-0.2-0.5-0.3-1-0.3-1.6c0-0.4,0-0.5,0-0.9c0.8,0,1.7-0.1,2.5-0.1c0,0.3,0,0.5,0,0.8c0,0.4,0.1,0.8,0.4,1.2
			c0.3,0.3,0.7,0.5,1.4,0.5c0.4,0,0.8-0.1,1-0.2c0.2-0.1,0.4-0.3,0.5-0.5c0.1-0.2,0.2-0.5,0.2-0.8c0-0.3,0-0.6,0-1
			c0-0.4,0-0.8-0.1-1.1c0-0.3-0.1-0.5-0.2-0.7c-0.1-0.2-0.3-0.3-0.5-0.4c-0.2-0.1-0.4-0.2-0.7-0.3c-0.7-0.3-1.1-0.4-1.8-0.6
			c-0.9-0.3-1.7-0.8-2.2-1.6c-0.4-0.8-0.6-1.7-0.6-2.6c0-0.6,0.1-1.2,0.2-1.8c0.2-0.6,0.4-1.1,0.8-1.5c0.3-0.4,0.8-0.8,1.3-1
			c0.5-0.3,1.2-0.4,1.9-0.4c0.6,0,1.2,0.1,1.7,0.3c0.5,0.2,1,0.5,1.4,0.8c0.7,0.7,1.1,1.6,1.1,2.6C65.1,30.8,65.1,31.1,65.1,31.5"/>
		<path class="st1" d="M77.9,38.7c0,0.4,0,0.6,0,1c0,0.5-0.1,1-0.3,1.5c-0.2,0.5-0.5,0.9-0.8,1.2c-0.4,0.4-0.8,0.6-1.3,0.8
			c-0.5,0.2-1,0.3-1.5,0.3c-0.5,0-0.9-0.1-1.4-0.2c-0.5-0.1-0.9-0.3-1.3-0.7c-0.4-0.3-0.7-0.7-1-1.2c-0.3-0.5-0.4-1.1-0.4-1.9
			c0-3.1,0-6.2,0-9.2c0-0.5,0.1-1.1,0.3-1.5c0.2-0.5,0.5-0.9,0.8-1.2c0.4-0.3,0.8-0.6,1.3-0.8c0.5-0.2,1.1-0.3,1.7-0.3
			c1.1,0,2.1,0.4,2.9,1.1c0.4,0.4,0.6,0.8,0.8,1.3c0.2,0.5,0.3,1,0.3,1.6c0,0.4,0,0.6,0,0.9c-0.8,0-1.7,0-2.5,0c0-0.3,0-0.5,0-0.8
			c0-0.5-0.1-0.9-0.4-1.2c-0.3-0.3-0.7-0.5-1.1-0.5c-0.6,0-1,0.2-1.2,0.6c-0.2,0.4-0.3,0.8-0.3,1.4c0,2.9,0,5.7,0,8.6
			c0,0.5,0.1,0.9,0.3,1.2c0.2,0.3,0.6,0.5,1.2,0.5c0.2,0,0.3,0,0.5-0.1c0.2-0.1,0.4-0.1,0.5-0.3c0.1-0.1,0.3-0.3,0.4-0.5
			c0.1-0.2,0.1-0.5,0.1-0.8c0-0.3,0-0.5,0-0.8C76.2,38.6,77,38.7,77.9,38.7"/>
		<path class="st1" d="M82.8,43.6c0-5.6,0.1-11.2,0.1-16.8c2.5,0.1,5,0.2,7.5,0.3l0,2.3c-1.7-0.1-3.3-0.2-5-0.2l-0.1,4.9
			c1.4,0.1,2.9,0.1,4.3,0.2c0,0.8,0,1.5,0,2.3c-1.4-0.1-2.9-0.1-4.3-0.2c0,1.6,0,3.3-0.1,4.9c1.6,0.1,3.3,0.1,4.9,0.2
			c0,0.8,0,1.6,0,2.4C87.7,43.7,85.2,43.6,82.8,43.6"/>
		<path class="st1" d="M94.6,44.1c0.1-5.6,0.2-11.2,0.3-16.8c0.8,0.1,1.6,0.1,2.4,0.2c1.2,3.5,2.4,6.9,3.6,10.4c0,0,0,0,0,0
			c0.1-3.4,0.2-6.7,0.2-10.1c0.8,0.1,1.7,0.1,2.5,0.2c-0.1,5.6-0.3,11.2-0.4,16.8c-0.8-0.1-1.6-0.1-2.3-0.2
			c-1.2-3.5-2.4-6.9-3.6-10.4c0,0,0,0,0,0c-0.1,3.4-0.1,6.7-0.2,10.1C96.2,44.2,95.4,44.2,94.6,44.1"/>
		<path class="st1" d="M109.5,45.3c0.1-4.8,0.3-9.7,0.4-14.5c-1-0.1-1.9-0.2-2.9-0.3c0-0.8,0-1.5,0.1-2.3c2.8,0.3,5.5,0.6,8.3,0.9
			c0,0.8-0.1,1.5-0.1,2.3c-1-0.1-1.9-0.2-2.9-0.3c-0.2,4.8-0.3,9.7-0.5,14.5C111.2,45.5,110.3,45.4,109.5,45.3"/>
		<path class="st1" d="M128.5,34.5c-1-0.2-1.9-0.3-2.9-0.4c0-0.3,0-0.4,0-0.6c0-0.6-0.1-1.2-0.4-1.7c-0.3-0.5-0.8-0.8-1.6-0.9
			c-0.4-0.1-0.7,0-1,0.1c-0.3,0.1-0.5,0.3-0.6,0.5c-0.2,0.2-0.3,0.5-0.3,0.8c-0.1,0.3-0.1,0.6-0.1,0.9c0,0.4,0,0.7,0,1
			c0,0.3,0.1,0.5,0.2,0.7c0.1,0.2,0.3,0.4,0.5,0.6c0.2,0.2,0.5,0.4,0.9,0.6c0.7,0.4,1.5,0.8,2.2,1.2c0.6,0.3,1.1,0.7,1.5,1.1
			c0.4,0.4,0.7,0.8,0.9,1.3c0.2,0.5,0.3,1,0.4,1.6c0,0.6,0.1,1.2,0,1.9c0,0.7-0.1,1.6-0.4,2.3c-0.2,0.7-0.5,1.2-0.9,1.7
			c-0.4,0.5-1,0.8-1.6,1c-0.8,0.2-1.6,0.2-2.4,0.1c-0.7-0.1-1.3-0.3-1.9-0.6c-0.6-0.3-1.1-0.7-1.5-1.2c-0.4-0.5-0.7-1-1-1.6
			c-0.2-0.6-0.3-1.2-0.3-1.9c0-0.4,0-0.6,0-1c1,0.1,1.9,0.3,2.9,0.4c0,0.4,0,0.5,0,0.9c0,0.5,0.1,1,0.4,1.5c0.3,0.5,0.8,0.7,1.5,0.8
			c0.5,0.1,0.9,0.1,1.2,0c0.3-0.1,0.5-0.3,0.7-0.5c0.2-0.2,0.3-0.5,0.3-0.9c0-0.4,0.1-0.8,0.1-1.2c0-0.5,0-0.9,0-1.3
			c0-0.3-0.1-0.6-0.2-0.8c-0.1-0.2-0.3-0.4-0.5-0.6c-0.2-0.2-0.5-0.3-0.9-0.5c-0.7-0.4-1.4-0.8-2-1.1c-1-0.5-2-1.3-2.5-2.3
			c-0.5-1-0.5-2.1-0.5-3.2c0-0.7,0.2-1.4,0.4-2.1c0.2-0.6,0.6-1.2,1-1.6c0.4-0.4,1-0.7,1.6-0.9c0.7-0.2,1.6-0.2,2.2-0.1
			c0.7,0.1,1.4,0.3,2,0.7c0.6,0.3,1.1,0.8,1.5,1.3c0.7,0.9,1.3,2.1,1.2,3.2C128.5,33.7,128.5,33.9,128.5,34.5"/>
	</g>
	<g>
		<polygon class="st1" points="63.1,20.6 63.1,13.3 61.7,13.3 61.7,12.2 65.7,12.2 65.7,13.3 64.3,13.3 64.3,20.6 		"/>
		<polygon class="st1" points="70.5,20.6 70.5,12.2 71.7,12.2 71.7,15.8 73.1,15.8 73.1,12.2 74.3,12.2 74.3,20.6 73.1,20.6 
			73.1,16.8 71.7,16.8 71.7,20.6 		"/>
		<polygon class="st1" points="79.7,20.6 79.7,12.2 83.3,12.2 83.3,13.3 80.9,13.3 80.9,15.8 83,15.8 83,16.9 80.9,16.9 80.9,19.4 
			83.3,19.4 83.3,20.6 		"/>
	</g>
	<g>
		<path class="st2" d="M140.9,27.9c0-4.1-3.8-7.2-7.3-7.7c-10.2-1.4-20.6-2.5-30.8-3.3c-3.6-4.3-7.9-7.7-12.5-10.1
			c-2.7-1.4-5.6-2.5-8.6-3.3c-3-0.8-6.2-1.1-9.3-1.1c0,0,0,0,0,0c-3.2,0-6.3,0.4-9.4,1.2c-2.9,0.7-5.8,1.8-8.6,3.3
			c-4.7,2.4-8.9,5.9-12.5,10.2c-10.1,0.7-20.4,1.8-30.4,3.2c-3.9,0.5-7.2,4-7.3,7.7l0,0.1l0,0c0.6,8.8,1.1,17.6,1.7,26.3
			c0,1.6,0.6,3.1,1.8,4.1c1.1,1,2.7,1.5,4.3,1.5c0.3,0,0.6,0,1-0.1c3.7-0.5,7.4-1,11.1-1.4v-1.7c-3.7,0.4-7.5,0.9-11.2,1.4
			c-1.4,0.2-2.9-0.2-3.9-1.1c-0.9-0.8-1.3-1.8-1.3-3C7,45.3,6.4,36.5,5.9,27.8l0-0.1c0.1-3.1,3-5.5,5.6-5.8
			c10.3-1.4,20.7-2.6,31-3.3l0.2,0l0.1-0.1c3.6-4.3,7.7-7.8,12.4-10.2c2.6-1.4,5.4-2.4,8.2-3.1c2.9-0.7,5.9-1.1,8.9-1.1c0,0,0,0,0,0
			c3,0,6,0.4,8.9,1.1c2.8,0.7,5.6,1.7,8.2,3.1c4.7,2.4,8.8,5.8,12.4,10.2l0.1,0.1l0.2,0c10.5,0.7,21.1,1.8,31.4,3.3
			c2.6,0.4,5.5,2.7,5.6,5.8l0,0.1c-0.6,8.7-1.1,17.6-1.7,26.3c0,1.2-0.4,2.2-1.3,3c-1,0.9-2.5,1.3-3.9,1.1c-3.1-0.4-6.2-0.8-9.4-1.2
			v1.7c3.1,0.4,6.2,0.7,9.3,1.2c1.9,0.3,3.9-0.3,5.3-1.5c1.2-1,1.8-2.5,1.8-4.1c0.6-8.8,1.1-17.7,1.7-26.3l0,0L140.9,27.9z"/>
	</g>
	<path class="st3" d="M118.1,60.6H26.9c-0.6,0-1-0.5-1-1v-7.5c0-0.6,0.5-1,1-1h91.2c0.6,0,1,0.5,1,1v7.5
		C119.2,60.2,118.7,60.6,118.1,60.6"/>
	<g>
		<path class="st4" d="M32.7,54h0.7l1.5,3.4h-0.8l-0.3-0.8h-1.4L32,57.4h-0.8L32.7,54z M33.5,56l-0.4-1.1L32.6,56H33.5z"/>
		<path class="st4" d="M36.3,54h0.7l1.6,2.1V54h0.7v3.4h-0.6L37,55.2v2.2h-0.7V54z"/>
		<path class="st4" d="M43.3,54h2.6v0.7H44v0.7h1.6V56H44v0.7h1.8v0.7h-2.6V54z"/>
		<path class="st4" d="M47.4,54h0.7l1.6,2.1V54h0.7v3.4h-0.6l-1.6-2.2v2.2h-0.7V54z"/>
		<path class="st4" d="M51.9,55.7L51.9,55.7c0-1,0.7-1.8,1.8-1.8c0.6,0,1,0.2,1.3,0.5L54.6,55c-0.3-0.2-0.5-0.4-0.9-0.4
			c-0.6,0-1,0.5-1,1.1v0c0,0.6,0.4,1.1,1,1.1c0.4,0,0.6-0.2,0.9-0.4l0.5,0.5c-0.3,0.4-0.7,0.6-1.4,0.6
			C52.7,57.4,51.9,56.7,51.9,55.7z"/>
		<path class="st4" d="M56.5,54h0.7v2.7H59v0.7h-2.4V54z"/>
		<path class="st4" d="M61.5,54h0.7l1.5,3.4h-0.8l-0.3-0.8h-1.4l-0.3,0.8h-0.8L61.5,54z M62.3,56l-0.4-1.1L61.4,56H62.3z"/>
		<path class="st4" d="M64.3,54h0.8l0.9,2.4l0.9-2.4h0.8l-1.4,3.4h-0.7L64.3,54z"/>
		<path class="st4" d="M69.1,54h2.6v0.7h-1.8v0.7h1.6V56h-1.6v0.7h1.8v0.7h-2.6V54z"/>
		<path class="st4" d="M75.4,55.7L75.4,55.7c0-1,0.7-1.8,1.8-1.8c0.6,0,1,0.2,1.3,0.5L78,55c-0.3-0.2-0.5-0.4-0.9-0.4
			c-0.6,0-1,0.5-1,1.1v0c0,0.6,0.4,1.1,1,1.1c0.4,0,0.6-0.2,0.9-0.4l0.5,0.5c-0.3,0.4-0.7,0.6-1.4,0.6
			C76.1,57.4,75.4,56.7,75.4,55.7z"/>
		<path class="st4" d="M79.7,55.7L79.7,55.7c0-1,0.8-1.8,1.8-1.8c1,0,1.8,0.8,1.8,1.7v0c0,1-0.8,1.8-1.8,1.8
			C80.5,57.4,79.7,56.7,79.7,55.7z M82.5,55.7L82.5,55.7c0-0.6-0.4-1.1-1-1.1c-0.6,0-1,0.5-1,1.1v0c0,0.6,0.4,1.1,1,1.1
			C82.1,56.7,82.5,56.3,82.5,55.7z"/>
		<path class="st4" d="M84.9,54h0.8l0.9,1.4l0.9-1.4h0.8v3.4h-0.7v-2.2l-1,1.4h0l-0.9-1.4v2.2h-0.7V54z"/>
		<path class="st4" d="M89.9,54h0.8l0.9,1.4l0.9-1.4h0.8v3.4h-0.7v-2.2l-1,1.4h0l-0.9-1.4v2.2h-0.7V54z"/>
		<path class="st4" d="M94.9,55.9V54h0.7v1.9c0,0.6,0.3,0.8,0.7,0.8c0.5,0,0.7-0.3,0.7-0.8V54h0.7v1.9c0,1-0.6,1.5-1.5,1.5
			S94.9,56.9,94.9,55.9z"/>
		<path class="st4" d="M99.5,54h0.7l1.6,2.1V54h0.7v3.4h-0.6l-1.6-2.2v2.2h-0.7V54z"/>
		<path class="st4" d="M104.3,54h0.7v3.4h-0.7V54z"/>
		<path class="st4" d="M107.5,54.7h-1V54h2.8v0.7h-1v2.7h-0.7V54.7z"/>
		<path class="st4" d="M111.7,56l-1.3-2.1h0.9l0.8,1.4l0.8-1.4h0.8l-1.3,2v1.3h-0.7V56z"/>
	</g>
</g>
</svg>
